<?xml version="1.0" standalone="no"?>
<!DOCTYPE svg PUBLIC "-//W3C//DTD SVG 20010904//EN"
 "http://www.w3.org/TR/2001/REC-SVG-20010904/DTD/svg10.dtd">
<svg version="1.0" xmlns="http://www.w3.org/2000/svg"
 width="766.000000pt" height="766.000000pt" viewBox="0 0 766.000000 766.000000"
 preserveAspectRatio="xMidYMid meet">
<metadata>
Created by potrace 1.11, written by Peter Selinger 2001-2013
</metadata>
<g transform="translate(0.000000,766.000000) scale(0.100000,-0.100000)"
fill="#000000" stroke="none">
<path d="M3799 7486 c-4 -3 -194 -16 -291 -20 -21 0 -38 -3 -38 -6 0 -3 -15
-7 -33 -8 -18 -1 -44 -5 -57 -7 -14 -3 -38 -8 -55 -10 -16 -3 -37 -8 -45 -10
-8 -2 -31 -7 -50 -10 -19 -3 -58 -12 -87 -20 -28 -8 -63 -16 -77 -17 -14 -1
-26 -7 -26 -12 0 -5 -3 -7 -6 -4 -5 6 -145 -33 -189 -51 -11 -5 -56 -21 -100
-36 -44 -16 -84 -31 -90 -35 -5 -4 -21 -11 -35 -15 -43 -13 -295 -137 -302
-149 -4 -6 -8 -8 -8 -4 0 14 -268 -157 -355 -227 -133 -106 -179 -148 -320
-291 -194 -197 -188 -190 -267 -291 -104 -133 -178 -242 -178 -260 0 -7 -3
-13 -7 -13 -5 0 -20 -21 -35 -48 -34 -61 -129 -246 -130 -252 0 -3 -8 -23 -18
-45 -76 -175 -133 -358 -181 -579 -10 -49 -17 -91 -14 -94 2 -3 0 -12 -4 -21
-5 -9 -12 -45 -16 -81 -3 -36 -8 -72 -10 -80 -23 -84 -22 -564 0 -720 3 -19 7
-55 10 -80 2 -25 7 -56 10 -70 3 -14 8 -41 11 -60 3 -19 10 -53 16 -75 10 -38
12 -49 22 -95 3 -11 27 -86 54 -167 50 -149 67 -190 148 -362 24 -51 44 -97
44 -101 0 -5 4 -10 8 -12 4 -1 18 -23 30 -48 13 -25 33 -62 45 -82 12 -21 37
-63 56 -95 19 -32 58 -93 87 -136 30 -43 54 -82 54 -88 0 -5 3 -9 8 -9 4 0 18
-18 32 -40 14 -22 27 -40 31 -40 3 0 10 -10 16 -23 6 -12 22 -35 36 -52 14
-16 65 -80 114 -141 179 -225 226 -275 723 -773 327 -328 569 -563 706 -688
17 -15 71 -64 119 -108 48 -44 96 -87 107 -95 10 -8 34 -28 52 -45 18 -16 55
-48 81 -70 26 -22 95 -85 152 -140 112 -107 185 -159 245 -176 33 -9 42 -7 79
18 90 60 126 87 264 198 93 74 122 98 179 150 13 11 61 54 107 95 92 82 651
634 1045 1032 238 240 330 336 420 437 21 25 46 52 54 60 8 9 58 70 110 136
52 66 100 126 107 133 7 7 30 39 50 70 21 31 46 66 56 77 10 11 30 40 44 65
14 25 29 47 33 50 26 18 226 391 285 530 15 36 31 74 36 85 5 11 30 79 55 150
64 184 119 413 139 573 3 23 7 61 11 85 3 23 7 83 9 132 2 50 5 92 6 95 1 3 1
9 0 13 -1 5 -4 66 -6 135 -5 132 -11 203 -18 237 -3 11 -8 49 -12 85 -4 36 -9
74 -11 85 -2 10 -6 36 -9 57 -3 20 -13 70 -21 110 -8 40 -17 84 -19 98 -2 14
-13 52 -23 85 -11 33 -23 75 -26 92 -4 18 -12 35 -17 38 -5 4 -9 14 -9 24 0
49 -204 487 -232 499 -5 2 -8 8 -8 13 0 9 -92 158 -113 184 -4 6 -26 35 -48
65 -97 133 -202 254 -338 390 -136 136 -201 193 -342 300 -57 44 -113 87 -124
95 -11 9 -33 23 -50 31 -219 115 -494 244 -518 244 -7 0 -17 4 -22 9 -10 8
-249 90 -277 95 -7 1 -17 4 -23 7 -5 4 -53 16 -105 28 -52 12 -113 26 -135 32
-54 12 -122 23 -275 44 -14 2 -83 7 -155 10 -71 4 -132 8 -136 11 -3 2 -8 2
-10 0z"/>
</g>
</svg>
