<?xml version="1.0" encoding="UTF-8" ?>
<!DOCTYPE svg PUBLIC "-//W3C//DTD SVG 1.1//EN" "http://www.w3.org/Graphics/SVG/1.1/DTD/svg11.dtd">
<svg width="519pt" height="119pt" viewBox="0 0 519 119" version="1.1" xmlns="http://www.w3.org/2000/svg">
<g id="#ffffffff">
</g>
<g id="#e67d21ff">
<path fill="#e67d21" opacity="1.00" d=" M 315.07 6.22 C 319.66 5.35 324.27 4.55 328.89 3.89 C 329.03 27.57 328.96 51.24 328.93 74.92 C 317.54 78.19 304.61 79.99 293.65 74.35 C 284.99 69.39 282.02 58.42 283.04 49.03 C 283.46 40.03 288.54 30.36 297.59 27.58 C 303.26 25.41 309.23 27.07 314.92 28.18 C 315.12 20.86 314.89 13.54 315.07 6.22 M 302.43 38.35 C 298.95 40.23 297.10 44.15 296.98 48.00 C 296.74 53.23 296.32 59.53 300.63 63.37 C 304.29 67.23 310.17 67.60 315.01 66.07 C 315.00 59.37 315.02 52.67 315.08 45.97 C 315.02 43.85 315.16 41.66 314.40 39.65 C 310.91 37.38 306.35 37.53 302.43 38.35 Z" />
<path fill="#e67d21" opacity="1.00" d=" M 468.08 6.22 C 472.64 5.35 477.22 4.56 481.82 3.91 C 481.98 11.97 481.68 20.02 482.00 28.08 C 488.66 26.54 495.95 25.37 502.31 28.71 C 510.94 33.28 514.20 43.72 513.94 52.93 C 513.35 59.61 511.52 66.72 506.42 71.42 C 501.44 75.89 494.67 78.21 488.01 78.08 C 481.36 78.01 474.83 76.56 468.29 75.52 C 467.70 67.36 468.11 59.17 468.01 51.00 C 468.06 36.07 467.90 21.14 468.08 6.22 M 481.98 39.09 C 481.74 48.08 481.81 57.08 481.95 66.08 C 486.79 67.62 492.50 66.79 496.31 63.31 C 500.09 59.29 500.47 53.30 499.93 48.08 C 499.40 44.45 498.10 40.12 494.38 38.60 C 490.36 37.08 486.02 38.31 481.98 39.09 Z" />
<path fill="#e67d21" opacity="1.00" d=" M 44.38 5.37 C 54.06 3.91 63.95 6.95 72.32 11.70 C 82.09 18.47 89.80 28.97 90.99 41.05 C 93.14 53.16 88.38 65.47 80.83 74.82 C 76.81 80.09 71.90 84.56 67.25 89.25 C 61.73 94.76 56.30 100.54 49.81 104.91 C 47.51 104.83 45.98 102.14 44.15 100.83 C 36.58 94.43 29.73 87.26 22.76 80.22 C 15.02 71.66 8.07 61.17 7.69 49.26 C 7.01 37.91 10.86 26.13 19.19 18.19 C 25.67 10.98 34.92 6.86 44.38 5.37 Z" />
<path fill="#e67d21" opacity="1.00" d=" M 117.04 12.04 C 131.35 11.97 145.67 11.98 159.99 12.04 C 160.01 15.68 160.01 19.32 159.99 22.96 C 150.34 23.10 140.69 22.89 131.04 23.03 C 130.94 28.01 130.94 32.99 131.04 37.97 C 139.69 38.11 148.33 37.90 156.98 38.04 C 157.03 42.01 157.03 45.99 156.97 49.96 C 148.33 50.10 139.68 49.89 131.03 50.03 C 130.89 59.01 131.09 67.98 130.96 76.96 C 126.32 77.05 121.68 77.05 117.04 76.96 C 116.98 55.32 116.98 33.68 117.04 12.04 Z" />
<path fill="#e67d21" opacity="1.00" d=" M 344.04 12.04 C 348.67 11.95 353.31 11.95 357.95 12.05 C 358.09 20.36 357.88 28.66 358.03 36.97 C 366.34 37.05 374.65 37.04 382.96 36.97 C 383.11 28.66 382.90 20.35 383.04 12.04 C 387.68 11.95 392.32 11.95 396.96 12.04 C 397.02 33.68 397.02 55.32 396.96 76.96 C 392.32 77.05 387.68 77.05 383.04 76.96 C 382.90 67.65 383.12 58.34 382.97 49.03 C 374.65 48.95 366.34 48.95 358.03 49.03 C 357.87 58.34 358.10 67.65 357.95 76.96 C 353.31 77.05 348.67 77.05 344.04 76.96 C 343.98 55.32 343.98 33.68 344.04 12.04 Z" />
<path fill="#e67d21" opacity="1.00" d=" M 188.39 26.34 C 194.35 25.27 200.65 27.00 205.63 30.35 C 213.25 35.43 216.70 45.13 216.04 54.01 C 215.53 62.28 211.89 71.27 204.06 75.08 C 193.68 81.02 178.60 78.24 172.12 67.86 C 167.34 60.87 167.14 51.78 168.73 43.74 C 170.85 34.55 179.26 27.78 188.39 26.34 M 188.37 38.31 C 186.72 38.80 185.28 39.90 184.34 41.35 C 180.18 47.88 180.30 56.87 184.74 63.23 C 187.47 67.10 193.30 67.46 197.19 65.25 C 200.44 62.95 201.66 58.79 202.02 54.99 C 202.33 50.16 202.19 44.84 199.24 40.76 C 196.73 37.53 192.03 37.44 188.37 38.31 Z" />
<path fill="#e67d21" opacity="1.00" d=" M 245.40 26.41 C 251.90 25.00 258.78 27.12 264.15 30.83 C 272.17 36.74 274.35 47.66 273.18 57.05 C 272.57 64.36 268.31 71.26 261.94 74.93 C 255.69 78.28 248.03 79.17 241.31 76.72 C 235.31 74.71 230.45 69.94 227.72 64.30 C 223.89 55.45 224.81 44.87 229.57 36.57 C 232.90 30.86 239.16 27.79 245.40 26.41 M 246.39 38.30 C 243.29 39.30 241.08 42.06 240.03 45.05 C 237.82 51.34 238.76 58.84 242.82 64.18 C 246.47 67.21 252.53 67.23 256.17 64.18 C 260.90 58.06 261.27 49.11 257.65 42.37 C 255.45 38.51 250.52 36.98 246.39 38.30 Z" />
<path fill="#e67d21" opacity="1.00" d=" M 412.04 28.04 C 416.34 27.96 420.65 27.96 424.96 28.03 C 425.18 37.01 424.77 46.00 425.06 54.98 C 425.46 58.57 425.86 62.78 428.79 65.29 C 432.51 67.38 436.94 66.16 440.95 65.88 C 441.13 53.27 440.89 40.65 441.04 28.04 C 445.34 27.96 449.65 27.96 453.96 28.03 C 453.87 43.87 454.34 59.72 453.71 75.54 C 443.15 77.04 431.79 80.20 421.60 75.42 C 415.12 72.86 412.11 65.58 412.02 59.02 C 411.95 48.69 411.99 38.36 412.04 28.04 Z" />
<path fill="#e67d21" opacity="1.00" d=" M 116.32 97.14 C 119.27 97.29 123.25 95.89 125.32 98.70 C 125.94 102.33 126.45 106.01 126.83 109.68 C 125.09 113.68 119.90 112.96 116.33 112.90 C 115.89 107.66 115.89 102.39 116.32 97.14 M 120.24 100.40 C 118.82 101.73 121.03 104.09 122.38 102.58 C 123.83 101.28 121.56 98.95 120.24 100.40 M 120.01 106.01 C 120.01 107.34 120.01 108.66 120.02 109.99 C 120.76 109.99 122.25 109.98 123.00 109.98 C 123.00 108.66 123.00 107.34 123.00 106.02 C 122.25 106.01 120.76 106.01 120.01 106.01 Z" />
<path fill="#e67d21" opacity="1.00" d=" M 129.28 97.31 C 132.18 97.20 135.07 97.11 137.97 97.02 C 137.98 97.73 138.02 99.17 138.03 99.89 C 136.35 100.00 134.67 100.10 132.99 100.21 C 133.00 100.83 133.01 102.08 133.02 102.70 C 134.35 102.87 135.67 103.05 137.00 103.22 C 137.00 103.86 137.01 105.14 137.01 105.77 C 135.67 105.95 134.33 106.13 133.00 106.31 C 133.00 106.94 133.01 108.19 133.02 108.82 C 134.68 108.99 136.34 109.15 138.01 109.31 C 138.01 110.52 138.01 111.73 138.01 112.95 C 135.20 112.94 132.33 113.13 129.58 112.44 C 128.17 107.54 129.12 102.33 129.28 97.31 Z" />
<path fill="#e67d21" opacity="1.00" d=" M 140.88 101.11 C 140.78 96.48 146.36 96.81 149.58 97.08 C 149.60 97.71 149.63 98.97 149.65 99.61 C 147.58 99.92 145.51 100.21 143.45 100.56 C 145.42 102.48 147.67 104.10 150.09 105.41 C 149.78 107.70 150.86 111.13 147.91 111.99 C 145.39 113.44 142.52 112.74 139.90 112.06 C 139.99 111.45 140.18 110.22 140.27 109.61 C 142.57 109.69 144.86 109.67 147.16 109.58 C 145.87 105.99 140.04 105.53 140.88 101.11 Z" />
<path fill="#e67d21" opacity="1.00" d=" M 151.95 97.14 C 155.63 97.09 159.31 97.08 162.99 97.11 C 163.00 97.78 163.02 99.12 163.03 99.79 C 161.70 99.95 160.38 100.11 159.05 100.27 C 159.03 104.49 159.02 108.71 158.97 112.93 C 158.24 112.93 156.76 112.93 156.02 112.93 C 155.98 109.01 155.97 105.10 155.97 101.18 C 154.70 100.62 153.42 100.07 152.14 99.53 C 152.10 98.94 152.00 97.74 151.95 97.14 Z" />
<path fill="#e67d21" opacity="1.00" d=" M 170.04 96.99 C 172.84 97.11 175.64 97.20 178.44 97.31 C 178.61 97.95 178.94 99.23 179.11 99.88 C 177.06 99.98 175.02 100.08 172.98 100.18 C 173.00 100.82 173.04 102.09 173.07 102.72 C 174.36 102.94 175.65 103.16 176.95 103.38 C 176.97 103.98 177.01 105.16 177.04 105.76 C 175.74 105.93 174.44 106.10 173.14 106.28 C 173.06 108.50 172.98 110.72 172.89 112.94 C 172.18 112.94 170.75 112.93 170.04 112.93 C 169.93 107.62 169.92 102.30 170.04 96.99 Z" />
<path fill="#e67d21" opacity="1.00" d=" M 185.41 97.24 C 188.13 96.38 191.32 97.98 192.71 100.38 C 193.32 102.85 193.23 105.44 193.03 107.95 C 192.85 111.60 188.47 113.62 185.23 112.98 C 178.53 110.71 178.32 99.17 185.41 97.24 M 187.01 110.68 C 188.39 109.03 190.39 107.41 190.06 105.00 C 190.40 102.57 188.37 100.95 186.98 99.29 C 183.00 102.09 183.00 107.91 187.01 110.68 Z" />
<path fill="#e67d21" opacity="1.00" d=" M 200.40 97.27 C 203.36 96.42 207.05 97.89 208.13 100.90 C 209.94 104.34 209.08 108.72 206.54 111.54 C 203.43 114.59 197.23 112.97 196.26 108.64 C 195.32 104.62 195.48 98.48 200.40 97.27 M 199.91 108.05 C 200.64 110.12 202.92 109.86 204.69 109.99 C 204.95 106.68 204.95 103.35 204.70 100.04 C 200.18 98.83 197.48 104.66 199.91 108.05 Z" />
<path fill="#e67d21" opacity="1.00" d=" M 211.84 96.67 C 215.18 97.14 219.04 96.93 221.78 99.21 C 224.45 102.24 224.13 106.88 222.28 110.24 C 219.37 112.60 215.41 112.79 211.86 113.38 C 210.71 107.86 210.73 102.19 211.84 96.67 M 215.17 99.52 C 214.99 103.17 214.99 106.83 215.16 110.48 C 216.76 109.67 218.87 109.34 219.77 107.59 C 220.16 105.90 220.15 104.10 219.77 102.41 C 218.86 100.67 216.76 100.32 215.17 99.52 Z" />
<path fill="#e67d21" opacity="1.00" d=" M 231.04 96.79 C 234.03 97.18 237.78 96.68 240.05 99.01 C 242.10 101.17 240.17 103.94 239.38 106.19 C 240.29 108.45 241.22 110.69 242.15 112.94 C 241.38 112.94 239.84 112.95 239.07 112.96 C 238.12 111.24 236.99 109.58 236.49 107.65 C 236.25 104.81 237.60 101.47 235.04 99.30 C 233.71 103.73 233.98 108.37 233.99 112.93 C 233.25 112.93 231.77 112.93 231.03 112.93 C 230.94 107.55 230.92 102.17 231.04 96.79 Z" />
<path fill="#e67d21" opacity="1.00" d=" M 244.10 97.03 C 245.39 97.01 246.68 96.99 247.97 96.97 C 248.05 102.47 248.17 107.97 247.82 113.46 C 246.59 112.92 245.33 112.42 244.20 111.69 C 243.59 106.83 244.04 101.91 244.10 97.03 Z" />
<path fill="#e67d21" opacity="1.00" d=" M 252.74 98.71 C 255.13 97.11 258.16 97.16 260.91 96.78 C 260.93 97.49 260.98 98.92 261.01 99.64 C 258.68 100.22 255.48 99.91 254.23 102.42 C 253.83 104.13 253.89 105.92 254.17 107.64 C 255.50 108.84 257.15 109.56 258.71 110.41 C 258.87 108.29 259.01 106.17 259.15 104.05 C 259.88 104.06 261.33 104.07 262.06 104.08 C 262.00 107.01 261.94 109.95 261.79 112.88 C 258.54 112.89 254.77 113.17 252.20 110.80 C 249.37 107.40 249.46 101.77 252.74 98.71 Z" />
<path fill="#e67d21" opacity="1.00" d=" M 265.00 96.99 C 265.73 96.99 267.20 96.99 267.93 96.99 C 268.00 98.99 268.07 100.99 268.16 102.99 C 269.72 102.99 271.28 102.99 272.84 103.00 C 272.92 100.99 272.99 98.99 273.07 96.99 C 273.80 96.99 275.27 96.99 276.00 96.99 C 276.05 102.30 276.07 107.62 275.96 112.93 C 275.25 112.93 273.83 112.94 273.12 112.94 C 273.01 110.60 272.92 108.27 272.82 105.94 C 271.35 106.06 269.88 106.18 268.41 106.31 C 268.19 108.51 267.99 110.70 267.79 112.90 C 267.11 112.91 265.73 112.94 265.05 112.95 C 264.92 107.63 264.95 102.31 265.00 96.99 Z" />
<path fill="#e67d21" opacity="1.00" d=" M 278.02 97.12 C 281.69 97.09 285.37 97.09 289.05 97.14 C 289.00 97.74 288.90 98.93 288.85 99.53 C 287.57 100.08 286.30 100.63 285.03 101.19 C 285.03 105.11 285.02 109.02 284.97 112.93 C 284.24 112.93 282.76 112.93 282.02 112.93 C 281.98 108.71 281.97 104.49 281.94 100.27 C 280.62 100.11 279.29 99.95 277.97 99.79 C 277.98 99.12 278.01 97.79 278.02 97.12 Z" />
<path fill="#e67d21" opacity="1.00" d=" M 300.29 96.96 C 301.49 96.91 303.20 96.81 303.49 98.37 C 305.26 103.28 306.65 108.33 307.93 113.39 C 305.68 112.23 303.60 110.57 301.09 110.05 C 298.88 110.80 296.94 112.16 294.90 113.27 C 296.23 107.71 297.41 101.95 300.29 96.96 M 299.61 106.83 C 300.49 106.88 302.24 106.97 303.12 107.02 C 302.54 105.19 301.97 103.36 301.38 101.53 C 300.71 103.27 300.18 105.06 299.61 106.83 Z" />
<path fill="#e67d21" opacity="1.00" d=" M 308.78 97.01 C 309.57 97.01 311.16 96.99 311.96 96.98 C 312.48 100.19 313.31 103.35 314.34 106.43 C 315.16 103.43 315.90 100.41 316.50 97.35 C 317.57 97.20 318.65 97.07 319.74 96.95 C 320.20 100.27 320.72 103.65 322.33 106.64 C 322.94 103.43 323.58 100.23 324.05 97.00 C 324.85 97.00 326.45 97.00 327.25 97.00 C 326.32 102.35 324.92 107.59 323.64 112.86 C 322.50 112.87 321.36 112.89 320.23 112.90 C 319.66 110.07 318.93 107.28 318.27 104.47 C 317.13 107.30 315.75 110.04 315.05 113.03 C 314.34 112.98 312.94 112.89 312.24 112.84 C 310.80 107.63 309.57 102.36 308.78 97.01 Z" />
<path fill="#e67d21" opacity="1.00" d=" M 332.16 99.08 C 332.49 97.32 334.47 97.15 335.79 96.43 C 338.08 101.89 339.92 107.55 340.92 113.40 C 338.69 112.34 336.68 110.43 334.17 110.18 C 331.97 110.92 330.08 112.29 328.06 113.38 C 329.27 108.57 330.51 103.76 332.16 99.08 M 334.39 101.62 C 333.85 103.40 333.29 105.17 332.72 106.93 C 333.64 106.92 335.47 106.89 336.39 106.87 C 335.63 105.16 335.00 103.39 334.39 101.62 Z" />
<path fill="#e67d21" opacity="1.00" d=" M 341.71 97.01 C 342.47 97.01 344.00 97.00 344.76 97.00 C 346.00 99.05 347.23 101.10 348.51 103.12 C 349.45 101.10 350.38 99.08 351.30 97.04 C 352.07 97.04 353.63 97.04 354.41 97.04 C 352.47 102.24 349.61 107.23 349.68 112.95 C 349.11 112.93 347.98 112.91 347.41 112.89 C 347.04 107.13 344.00 102.15 341.71 97.01 Z" />
</g>
</svg>
